<?xml version="1.0" encoding="UTF-8" standalone="no"?>
<!DOCTYPE svg PUBLIC "-//W3C//DTD SVG 1.1//EN" "http://www.w3.org/Graphics/SVG/1.1/DTD/svg11.dtd">
<svg width="100%" height="100%" viewBox="0 0 136 47" version="1.1" xmlns="http://www.w3.org/2000/svg" xmlns:xlink="http://www.w3.org/1999/xlink" xml:space="preserve" xmlns:serif="http://www.serif.com/" style="fill-rule:evenodd;clip-rule:evenodd;stroke-linejoin:round;stroke-miterlimit:2;">
    <g transform="matrix(1,0,0,1,-52.9599,-40.9644)">
        <path d="M75.009,41.071L73.116,58.064L89.53,41.023L105.932,41.06L87.955,59.499L99.495,86.959L83.406,86.957L76.196,69.154L69.15,76.484L67.938,86.949L52.96,87.013L60.97,41.053L75.009,41.071Z" style="fill:rgb(21,82,127);"/>
        <path d="M134.541,40.964L148.918,40.975L141.133,87.012L125.561,86.856L115.731,63.712L112.173,87.137L99.444,86.948L105.963,41.005L120.951,40.995L130.785,64.271L134.541,40.964Z" style="fill:rgb(21,82,127);"/>
        <path d="M187.525,47.434C187.63,47.64 192.236,56.27 183.747,67.342C177.416,75.6 159.845,74.088 159.845,74.088L157.734,86.954L143.065,87.035L150.489,41.023C150.489,41.023 178.132,41.007 180.263,41.023C182.637,41.04 186.238,44.92 187.525,47.434ZM173.171,53.879C171.504,52.527 163.02,52.996 163.02,52.996L162.097,61.984C162.097,61.984 171.096,61.392 172.836,60.059C174.577,58.726 174.838,55.231 173.171,53.879Z" style="fill:rgb(21,82,127);"/>
    </g>
</svg>
